<svg width="2244" height="2244" xmlns="http://www.w3.org/2000/svg" xmlns:xlink="http://www.w3.org/1999/xlink" xml:space="preserve" overflow="hidden"><defs><clipPath id="clip0"><rect x="1078" y="108" width="2244" height="2244"/></clipPath></defs><g clip-path="url(#clip0)" transform="translate(-1078 -108)"><path d="M3083.73 563.435 2658.45 138.161C2637.34 117.048 2610.19 108 2580.03 108L1388.66 108C1325.32 108 1277.06 156.258 1277.06 219.597L1277.06 219.597 1277.06 2240.4C1277.06 2303.74 1325.32 2352 1388.66 2352L1388.66 2352 3008.32 2352C3071.66 2352 3119.92 2303.74 3119.92 2240.4L3119.92 2240.4 3119.92 644.871C3113.89 614.71 3104.84 584.548 3083.73 563.435ZM2537.81 310.081 2914.82 687.097 2537.81 687.097 2537.81 310.081ZM1436.92 2195.16 1436.92 258.806 2368.9 258.806 2368.9 729.323C2368.9 795.677 2420.18 843.935 2483.52 843.935L2954.03 843.935 2954.03 2192.15 1436.92 2195.16 1436.92 2195.16Z"/><path d="M1752.44 1646 1752.44 956.459 1525 956.459 1946.5 351 2368 956.459 2140.56 956.459 2140.56 1646Z" stroke="#000000" stroke-width="45.8333" stroke-miterlimit="8" fill="#2F5597" fill-rule="evenodd"/><text fill="#002060" font-family="Big John,Big John_MSFontService,sans-serif" font-weight="400" font-size="403" transform="matrix(1 0 0 1 1465.99 2089)">Apply</text></g></svg>